<svg width="1469" height="293" viewBox="0 0 1469 293" fill="none" xmlns="http://www.w3.org/2000/svg">
<g clip-path="url(#clip0_1_27)">
<path d="M1411.78 102.13C1357.63 102.13 1319.19 159.27 1319.19 216.82C1319.19 257.68 1338.56 284.55 1375.67 284.55C1429.82 284.55 1468.26 227.72 1468.26 170.17C1468.26 129.31 1448.89 102.13 1411.78 102.13ZM1378.07 278.45C1353.21 278.45 1340.94 257.68 1340.94 219.55C1340.94 161.67 1369.55 108.2 1409.41 108.2C1434.27 108.2 1446.52 128.97 1446.52 167.1C1446.52 224.98 1417.91 278.45 1378.07 278.45Z" fill="white"/>
<path d="M1276.41 49.33C1276.41 58.16 1282.53 64.29 1291.03 64.29C1301.21 64.29 1309.05 56.48 1309.05 46.63C1309.05 37.77 1302.93 31.65 1294.43 31.65C1284.22 31.65 1276.41 39.48 1276.41 49.34" fill="white"/>
<path d="M1266.16 249.52L1292.7 102.8H1288.62C1281.47 117.78 1256.31 129.01 1237.6 129.01V133.73H1269.22L1247.81 252.25C1243.4 276.39 1248.5 284.56 1259.7 284.56C1272.97 284.56 1293.39 266.21 1307.68 245.11L1303.6 241.03C1290.33 259.4 1280.45 267.24 1272.98 267.24C1266.86 267.24 1263.79 263.16 1266.17 249.53" fill="white"/>
<path d="M1193.57 267.56C1188.47 267.56 1186.09 263.81 1186.09 258.04C1186.09 255.64 1186.42 252.58 1187.44 247.47L1232.39 0H1227.95C1220.8 14.98 1195.62 26.21 1176.91 26.21V30.93H1208.89L1194.27 110.58C1184.73 107.87 1172.17 102.13 1153.79 102.13C1102.01 102.13 1059.49 165.75 1059.49 229.1C1059.49 265.19 1073.09 284.56 1097.26 284.56C1129.59 284.56 1157.54 246.13 1172.85 215.48H1175.22L1170.12 244.42C1168.44 253.61 1167.41 261.11 1167.41 265.88C1167.41 276.75 1172.49 284.56 1183.03 284.56C1198.01 284.56 1213.99 267.56 1228.3 245.44L1224.88 241.36C1211.94 259.07 1200.71 267.57 1193.57 267.57V267.56ZM1166.72 214.78C1150.72 245.1 1124.48 270.29 1104.4 270.29C1088.73 270.29 1080.56 254.62 1080.56 224.33C1080.56 163.36 1114.27 108.21 1153.45 108.21C1168.07 108.21 1181.68 116.04 1191.2 126.61L1185.07 159.28C1181.32 179.03 1175.22 198.45 1166.72 214.79V214.78Z" fill="white"/>
<path d="M908.76 284.56C943.83 284.56 981.29 223.31 997.95 182.09H999.3L988.1 244.08C986.39 253.6 985.39 261.1 985.39 265.87C985.39 276.74 990.47 284.55 1001.01 284.55C1016.02 284.55 1032.12 267.55 1046.41 245.43L1043.02 241.35C1030.06 259.06 1018.75 267.56 1011.58 267.56C1006.45 267.56 1004.05 263.81 1004.05 258.04C1004.05 255.64 1004.41 252.58 1005.1 248.83L1031.11 108.26L1030.75 108.92L1031.77 102.8H1027.64C1020.47 117.78 995.23 129.01 976.52 129.01V133.73H1008.17L1006.13 144.98C1000.34 179.36 952.36 267.91 917.62 267.91C908.41 267.91 903.99 260.41 903.99 249.51C903.99 245.09 904.68 240.32 906.03 232.82L922.03 142.58C923.74 133.72 924.76 124.56 924.76 120.81C924.76 111.29 919.32 102.13 908.45 102.13C894.16 102.13 878.16 119.1 863.87 141.23L867.26 145.65C880.53 127.3 891.43 119.11 898.57 119.11C903.67 119.11 906.07 123.22 906.07 129.37C906.07 131.72 905.71 134.09 905.05 137.84L887.67 235.23C885.63 246.46 885.3 253.27 885.3 256.34C885.3 271.98 893.11 284.57 908.75 284.57" fill="white"/>
<path d="M801.58 284.56C816.54 284.56 832.2 267.56 846.83 245.44L843.44 241.36C830.5 259.07 819.27 267.57 812.13 267.57C807.03 267.57 804.63 263.84 804.63 258.05C804.63 255.65 804.99 252.59 805.65 248.84L831.2 108.22H839.7C855.7 108.22 864.89 105.51 876.48 98.73L876.15 95.67C859.79 99.42 851.62 99.75 832.92 98.73L839.38 62.64H834.96C826.44 96.68 811.46 103.5 788.36 103.83V108.22H813.5L788.69 244.09C786.98 253.61 785.96 261.11 785.96 265.88C785.96 276.75 791.06 284.56 801.6 284.56" fill="white"/>
<path d="M683.75 277.43C639.19 277.43 621.45 240.32 623.16 200.49L617.39 199.8L610.93 283.53L617.36 284.55C618.71 270.28 621.8 269.26 626.57 269.26C636.11 269.26 650.41 284.55 681.03 284.55C735.18 284.55 760.32 251.22 761.01 220.57C761.7 183.13 741.97 166.08 710.99 144.65C686.46 127.63 662.96 114.36 663.32 85.42C663.65 59.18 683.4 41.5 709.97 41.5C741.31 41.5 761.01 64.65 766.12 106.17L771.91 106.53L766.45 25.88L760.68 26.21C762.36 35.73 756.93 40.17 750.14 40.17C742.33 40.17 729.03 34.38 709.97 34.38C671.15 34.38 644.64 58.52 643.95 92.21C643.26 124.24 666.38 143.63 693.28 159.97C721.2 176.99 740.95 193.68 740.62 226.71C740.29 254.99 720.18 277.45 683.73 277.45" fill="white"/>
<path d="M512.91 290.32L518.32 292.72L553.72 206.28L547.93 203.22C524.45 256.66 505.74 271.31 466.26 271.31H446.18C424.03 271.31 423.01 262.79 428.11 233.85L454.35 89.15C461.5 50 467.95 45.92 495.51 45.92V40.18H412.11V45.92C434.59 45.92 442.1 50 434.95 89.15L409.05 232.5C402.59 268.59 395.12 272.67 371.64 272.67V278.41H499.27C511.9 278.41 516.98 280.81 512.92 290.33" fill="white"/>
<path d="M364.89 75.87C368.97 52.37 377.14 44.2 396.54 44.2V40.17H355.35C328.48 61.91 287.64 104.48 259.37 140.24C254.62 146.01 250.21 152.16 245.77 158.28C230.82 106.86 208.31 55.1 200.52 40.17H172.6C106.2 40.17 67.76 76.89 67.76 115.02C67.76 131.38 73.5 146.69 85.75 162L90.19 158.27C80.65 143.62 76.2 128.97 76.2 118.08C76.2 83.75 105.83 60.94 156.23 59.59L188.26 58.57L180.43 85.11C169.86 120.18 157.26 156.59 140.23 186.55C114.35 232.49 82.68 263.14 41.18 264.16C19.03 264.49 5.72999 255.64 5.72999 237.62C5.72999 210.72 27.19 196.07 32.99 191.99L31.28 187.57C21.07 191.65 -0.0100098 212.4 -0.0100098 237.95C-0.0100098 267.55 16.99 284.55 43.22 284.55C84.03 284.55 120.14 240.32 149.08 187.55C164.39 157.59 177.36 124.57 187.21 92.89L194.38 69.74C203.54 90.16 222.27 132.39 233.17 176.31C213.06 206.27 199.48 235.54 199.48 259.38C199.48 276.4 207.6 284.54 219.87 284.54C243.04 284.54 259.68 265.83 259.68 235.54C259.68 215.79 254.93 191.29 248.14 166.43C253.91 158.26 260.01 150.07 266.16 142.26C289.33 113.32 321.67 75.17 346.83 56.1L312.48 248.83C308.4 271.95 315.54 281.11 327.44 281.11C340.71 281.11 360.8 262.43 375.09 241.32L371.7 238.26C358.4 256.63 348.2 263.81 341.05 263.81C333.9 263.81 331.86 259.04 334.24 246.1L364.89 75.85V75.87ZM219.88 277.43C211.02 277.43 205.92 269.26 205.92 258.7C205.92 239.64 217.84 213.09 235.22 185.51C238.97 202.53 241.34 219.55 241.34 235.22C241.34 258.7 233.51 277.43 219.88 277.43Z" fill="white"/>
</g>
<defs>
<clipPath id="clip0_1_27">
<rect width="1468.25" height="292.72" fill="white"/>
</clipPath>
</defs>
</svg>
